<svg width="554" height="133" viewBox="0 0 554 133" fill="none" xmlns="http://www.w3.org/2000/svg">
<path d="M73.6829 15.6665L22.8496 76.6665H68.5996L63.5163 117.333L114.35 56.3332H68.5996L73.6829 15.6665Z" fill="#2B2D42"/>
<g filter="url(#filter0_d_5_1278)">
<g filter="url(#filter1_d_5_1278)">
<path d="M161.85 55L149.85 66.1696L159.176 77.0036L178.85 102.777H137.85V26.3687H192.02L171.35 46.5542L161.85 55Z" fill="#2B2D42"/>
<path d="M396.6 40V97.3032H381.234V40H390.6H396.6Z" fill="#2B2D42"/>
<path d="M212.616 34.6938C215.657 34.6938 218.622 35.378 221.511 36.7465C224.477 38.039 226.909 39.7116 228.81 41.7644V36.4044H248.426V94.5662H228.81V84.8725C227.366 88.0657 225.161 90.7648 222.196 92.9696C219.231 95.1744 215.657 96.2768 211.476 96.2768C207.142 96.2768 203.074 95.1744 199.273 92.9696C195.472 90.7648 192.354 87.3815 189.922 82.8198C187.565 78.182 186.386 72.3659 186.386 65.3713C186.386 58.8328 187.565 53.2827 189.922 48.721C192.354 44.1593 195.548 40.7 199.501 38.3431C203.531 35.9102 207.902 34.6938 212.616 34.6938ZM216.722 53.853C213.909 53.853 211.552 54.9934 209.651 57.2742C207.826 59.5551 206.914 62.2541 206.914 65.3713C206.914 68.4884 207.864 71.1114 209.765 73.2402C211.666 75.369 214.175 76.4334 217.292 76.4334C218.964 76.4334 220.675 76.0152 222.424 75.1789C224.172 74.2666 225.655 72.9361 226.871 71.1874C228.164 69.3627 228.81 67.0439 228.81 64.2308V58.6427C227.138 57.2742 225.237 56.1338 223.108 55.2215C221.055 54.3091 218.926 53.853 216.722 53.853Z" fill="#2B2D42"/>
<path d="M286.949 35.7201C290.751 35.7201 294.248 36.2903 297.441 37.4308C300.71 38.4952 303.333 39.9777 305.31 41.8784V57.2742C303.333 56.0578 301.091 54.9173 298.582 53.8529C296.073 52.7125 293.374 52.1423 290.485 52.1423C288.66 52.1423 287.025 52.5224 285.581 53.2827C284.212 53.967 283.528 55.0694 283.528 56.59C283.528 57.6544 283.946 58.4526 284.782 58.9848C285.619 59.517 287.253 60.0873 289.686 60.6955L293.222 61.6078C303.333 64.1928 308.389 69.6288 308.389 77.9159C308.389 81.7174 307.249 85.1006 304.968 88.0657C302.763 90.9548 299.836 93.2357 296.187 94.9083C292.613 96.5049 288.736 97.3032 284.554 97.3032C280.221 97.3032 276.191 96.695 272.466 95.4785C268.74 94.186 265.547 92.6274 262.886 90.8027V75.521C265.623 77.1937 268.702 78.6002 272.124 79.7406C275.621 80.881 278.738 81.4512 281.475 81.4512C283.68 81.4512 285.277 81.1852 286.265 80.653C287.329 80.1208 287.862 79.1704 287.862 77.8019C287.862 76.7375 287.253 75.9392 286.037 75.407C284.82 74.7988 283.072 74.1145 280.791 73.3542L274.975 71.5296C270.717 70.2371 267.6 68.2223 265.623 65.4853C263.646 62.6722 262.658 59.2509 262.658 55.2214C262.658 51.1919 263.722 47.7326 265.851 44.8436C267.98 41.9545 270.869 39.7116 274.519 38.115C278.244 36.5184 282.388 35.7201 286.949 35.7201Z" fill="#2B2D42"/>
<path d="M350.426 47.1244C356.356 47.1244 357.6 47.2684 362.6 50.5458C366.401 54.5753 365.1 89.2061 365.1 62.1781V94.9083L352.821 94.6802V65.0591C352.821 62.17 352.022 60.1552 350.426 59.0148C348.829 57.7983 347.043 57.1901 345.066 57.1901C342.937 57.1901 341.15 57.7603 339.706 58.9008C338.261 59.9652 337.007 61.2577 335.942 62.7782L336.6 94.6802L322.1 94.9083V58.9008V36.7465L335.942 37.4308V47.1244C337.767 44.6155 334.015 54.7281 336.6 52.9034C339.261 51.0787 346.548 47.1244 350.426 47.1244Z" fill="#2B2D42"/>
<path d="M435.086 38.0432C438.888 38.0432 442.385 38.6134 445.578 39.7538C448.848 40.8182 451.47 42.3008 453.447 44.2015V59.5973C451.47 58.3808 449.228 57.2404 446.719 56.176C444.21 55.0356 441.511 54.4654 438.622 54.4654C436.797 54.4654 435.162 54.8455 433.718 55.6058C432.349 56.29 431.665 57.3925 431.665 58.913C431.665 59.9774 432.083 60.7757 432.92 61.3079C433.756 61.8401 435.39 62.4103 437.823 63.0186L441.359 63.9309C451.47 66.5159 456.526 71.9519 456.526 80.239C456.526 84.0404 455.386 87.4237 453.105 90.3888C450.9 93.2779 447.973 95.5587 444.324 97.2314C440.75 98.828 436.873 99.6263 432.691 99.6263C428.358 99.6263 424.328 99.018 420.603 97.8016C416.877 96.5091 413.684 94.9505 411.023 93.1258V77.8441C413.76 79.5167 416.839 80.9233 420.261 82.0637C423.758 83.2041 426.875 83.7743 429.612 83.7743C431.817 83.7743 433.414 83.5082 434.402 82.976C435.466 82.4438 435.999 81.4935 435.999 80.125C435.999 79.0606 435.39 78.2623 434.174 77.7301C432.958 77.1218 431.209 76.4376 428.928 75.6773L423.112 73.8526C418.854 72.5601 415.737 70.5454 413.76 67.8084C411.784 64.9953 410.795 61.574 410.795 57.5445C410.795 53.515 411.86 50.0557 413.988 47.1666C416.117 44.2775 419.006 42.0347 422.656 40.4381C426.381 38.8415 430.525 38.0432 435.086 38.0432Z" fill="#2B2D42"/>
<path d="M496.261 49.4475C502.191 49.4475 503.435 49.5915 508.435 52.8688C512.236 56.8984 510.935 91.5292 510.935 64.5012V97.2314L498.656 97.0033V67.3822C498.656 64.4931 497.857 62.4783 496.261 61.3379C494.664 60.1214 492.877 59.5132 490.901 59.5132C488.772 59.5132 486.985 60.0834 485.541 61.2238C484.096 62.2882 482.842 63.5807 481.777 65.1013L482.435 97.0033L467.935 97.2314V61.2238V39.0696L481.777 39.7539V49.4475C483.602 46.9385 479.85 57.0512 482.435 55.2265C485.096 53.4018 492.383 49.4475 496.261 49.4475Z" fill="#2B2D42"/>
</g>
<path d="M519.764 26.5157V28.9422H516.843V36.3245H514.071V28.9422H511.149V26.5157H519.764Z" fill="#2B2D42"/>
<path d="M531.149 26.3687V36.3687H528.377V31.5157L526.345 33.7951H525.515L523.483 31.5157V36.3687H520.711V26.3687H521.689L525.93 30.6334L530.171 26.3687H531.149Z" fill="#2B2D42"/>
</g>
<defs>
<filter id="filter0_d_5_1278" x="133.85" y="26.3687" width="401.3" height="84.4087" filterUnits="userSpaceOnUse" color-interpolation-filters="sRGB">
<feFlood flood-opacity="0" result="BackgroundImageFix"/>
<feColorMatrix in="SourceAlpha" type="matrix" values="0 0 0 0 0 0 0 0 0 0 0 0 0 0 0 0 0 0 127 0" result="hardAlpha"/>
<feOffset dy="4"/>
<feGaussianBlur stdDeviation="2"/>
<feComposite in2="hardAlpha" operator="out"/>
<feColorMatrix type="matrix" values="0 0 0 0 0 0 0 0 0 0 0 0 0 0 0 0 0 0 0.25 0"/>
<feBlend mode="normal" in2="BackgroundImageFix" result="effect1_dropShadow_5_1278"/>
<feBlend mode="normal" in="SourceGraphic" in2="effect1_dropShadow_5_1278" result="shape"/>
</filter>
<filter id="filter1_d_5_1278" x="133.85" y="26.3687" width="381.3" height="84.4087" filterUnits="userSpaceOnUse" color-interpolation-filters="sRGB">
<feFlood flood-opacity="0" result="BackgroundImageFix"/>
<feColorMatrix in="SourceAlpha" type="matrix" values="0 0 0 0 0 0 0 0 0 0 0 0 0 0 0 0 0 0 127 0" result="hardAlpha"/>
<feOffset dy="4"/>
<feGaussianBlur stdDeviation="2"/>
<feComposite in2="hardAlpha" operator="out"/>
<feColorMatrix type="matrix" values="0 0 0 0 0 0 0 0 0 0 0 0 0 0 0 0 0 0 0.25 0"/>
<feBlend mode="normal" in2="BackgroundImageFix" result="effect1_dropShadow_5_1278"/>
<feBlend mode="normal" in="SourceGraphic" in2="effect1_dropShadow_5_1278" result="shape"/>
</filter>
</defs>
</svg>
